<?xml version="1.0" standalone="no"?>
<!DOCTYPE svg PUBLIC "-//W3C//DTD SVG 20010904//EN"
 "http://www.w3.org/TR/2001/REC-SVG-20010904/DTD/svg10.dtd">
<svg version="1.0" xmlns="http://www.w3.org/2000/svg"
 width="1024.000000pt" height="1024.000000pt" viewBox="0 0 1024.000000 1024.000000"
 preserveAspectRatio="xMidYMid meet">

<g transform="translate(0.000000,1024.000000) scale(0.100000,-0.100000)"
fill="#000000" stroke="none">
<path d="M4985 8114 c-16 -2 -73 -9 -125 -15 -623 -71 -1210 -317 -1713 -716
-96 -77 -307 -283 -392 -383 -429 -508 -666 -1055 -741 -1705 -22 -200 -15
-565 15 -770 64 -424 227 -852 463 -1212 505 -772 1271 -1266 2212 -1428 513
-88 1072 -38 1606 143 570 193 1070 549 1461 1037 335 418 549 914 634 1465
23 146 31 549 15 720 -53 584 -257 1118 -603 1578 -205 272 -414 477 -702 687
-152 111 -263 176 -478 280 -322 156 -622 245 -1012 301 -104 14 -569 28 -640
18z m475 -324 c706 -64 1337 -358 1830 -850 430 -432 685 -932 792 -1555 19
-112 22 -167 22 -405 0 -239 -3 -292 -22 -402 -68 -392 -184 -716 -365 -1018
-68 -113 -234 -332 -344 -452 -342 -377 -790 -663 -1278 -815 -281 -87 -492
-122 -790 -130 -489 -13 -937 85 -1380 302 -303 148 -537 316 -780 560 -377
377 -626 811 -746 1299 -105 431 -95 966 25 1383 91 315 199 543 392 823 111
162 199 268 342 414 248 252 486 418 840 584 453 214 970 306 1462 262z"/>
<path d="M5005 7634 c-16 -2 -73 -9 -125 -15 -391 -43 -831 -202 -1165 -420
-215 -140 -366 -267 -528 -444 -432 -472 -677 -1046 -712 -1670 -7 -121 7
-354 31 -510 75 -487 273 -908 610 -1295 252 -290 533 -507 869 -670 266 -129
495 -203 801 -257 149 -26 177 -28 434 -28 325 0 481 20 753 96 739 207 1385
739 1717 1414 89 181 146 336 196 540 53 214 68 347 68 600 0 243 -13 363 -66
594 -131 580 -498 1142 -976 1499 -412 307 -845 486 -1322 547 -118 15 -520
28 -585 19z m382 -185 c587 -49 1103 -264 1540 -642 348 -300 583 -652 722
-1082 94 -288 126 -504 118 -814 -6 -280 -36 -452 -126 -713 -126 -369 -281
-617 -570 -911 -378 -385 -837 -633 -1371 -741 -329 -66 -669 -63 -1000 10
-221 49 -540 167 -727 269 -193 106 -440 291 -592 445 -381 385 -602 809 -692
1325 -26 152 -36 448 -20 600 42 407 194 816 429 1154 269 388 673 717 1100
896 219 92 382 139 608 176 227 37 388 44 581 28z"/>
<path d="M5280 4965 l0 -2155 53 21 c28 12 68 27 87 34 l35 12 0 2089 0 2088
-80 33 c-44 18 -83 33 -87 33 -5 0 -8 -970 -8 -2155z"/>
<path d="M5053 7062 c-73 -58 -122 -118 -154 -186 -32 -69 -51 -136 -185 -646
-148 -566 -165 -627 -395 -1455 -78 -280 -144 -520 -147 -533 -2 -12 -8 -24
-12 -27 -9 -5 -157 519 -405 1430 -202 739 -215 794 -215 877 0 61 -3 78 -14
78 -8 0 -53 -51 -99 -112 -89 -118 -122 -153 -198 -210 -46 -34 -46 -35 -27
-57 17 -22 18 -71 18 -1222 l0 -1198 -21 -12 c-21 -11 -20 -13 29 -62 27 -29
89 -106 137 -172 88 -121 152 -195 168 -195 5 0 7 421 5 959 l-3 958 56 -216
c31 -119 84 -318 118 -443 33 -126 88 -330 122 -455 93 -350 150 -557 155
-563 3 -2 13 1 22 8 55 39 80 46 147 47 59 0 77 -4 118 -28 27 -16 50 -27 52
-25 7 7 90 308 200 723 110 420 255 958 259 962 0 1 -1 -470 -3 -1046 -4
-1174 -7 -1114 68 -1209 23 -29 75 -72 127 -107 49 -31 99 -67 112 -78 l22
-20 0 2120 c0 1167 3 2128 6 2137 10 26 -11 18 -63 -22z"/>
<path d="M5620 4964 l0 -2115 28 19 c68 48 113 62 307 92 356 56 624 158 855
323 109 78 280 250 348 349 204 298 247 640 119 937 -84 192 -237 350 -427
440 l-60 28 65 32 c87 43 195 130 261 209 65 80 137 221 165 329 31 114 31
289 0 403 -47 178 -142 339 -285 483 -109 110 -217 188 -363 262 -193 98 -409
162 -693 205 -155 23 -209 42 -268 90 -20 16 -40 30 -44 30 -5 0 -8 -952 -8
-2116z m477 1695 c655 -132 1013 -680 760 -1164 -45 -86 -182 -220 -273 -267
-114 -60 -149 -65 -449 -69 l-270 -4 -3 768 -2 768 72 -6 c40 -4 114 -15 165
-26z m367 -1764 c117 -25 209 -77 306 -174 68 -69 94 -103 127 -171 63 -129
77 -193 78 -345 0 -147 -20 -239 -78 -367 -39 -83 -131 -211 -203 -280 -182
-174 -497 -312 -759 -335 l-75 -6 0 847 0 846 268 0 c195 0 286 -4 336 -15z"/>
<path d="M4065 6853 c-79 -41 -135 -130 -135 -212 0 -123 136 -243 253 -224
55 9 129 55 161 100 35 50 46 137 26 198 -16 47 -72 111 -121 136 -47 24 -141
25 -184 2z"/>
<path d="M4053 3465 c-141 -70 -161 -265 -39 -372 104 -92 273 -59 338 66 102
195 -102 404 -299 306z"/>
</g>
</svg>
